<svg width="16" height="17" viewBox="0 0 16 17" fill="none" xmlns="http://www.w3.org/2000/svg">
<path fill-rule="evenodd" clip-rule="evenodd" d="M1.64592 4.91984C1.69236 4.87328 1.74754 4.83634 1.80828 4.81113C1.86903 4.78592 1.93415 4.77295 1.99992 4.77295C2.06568 4.77295 2.13081 4.78592 2.19155 4.81113C2.2523 4.83634 2.30747 4.87328 2.35392 4.91984L7.99992 10.5668L13.6459 4.91984C13.6924 4.87335 13.7476 4.83648 13.8083 4.81132C13.8691 4.78616 13.9342 4.77321 13.9999 4.77321C14.0657 4.77321 14.1308 4.78616 14.1915 4.81132C14.2522 4.83648 14.3074 4.87335 14.3539 4.91984C14.4004 4.96633 14.4373 5.02152 14.4624 5.08226C14.4876 5.143 14.5005 5.2081 14.5005 5.27384C14.5005 5.33959 14.4876 5.40469 14.4624 5.46543C14.4373 5.52617 14.4004 5.58135 14.3539 5.62784L8.35392 11.6278C8.30747 11.6744 8.2523 11.7113 8.19155 11.7366C8.13081 11.7618 8.06568 11.7747 7.99992 11.7747C7.93415 11.7747 7.86903 11.7618 7.80828 11.7366C7.74754 11.7113 7.69236 11.6744 7.64592 11.6278L1.64592 5.62784C1.59935 5.5814 1.56241 5.52622 1.5372 5.46548C1.512 5.40473 1.49902 5.33961 1.49902 5.27384C1.49902 5.20808 1.512 5.14295 1.5372 5.08221C1.56241 5.02146 1.59935 4.96629 1.64592 4.91984Z" fill="black"/>
</svg>
