<svg width="16" height="17" viewBox="0 0 16 17" fill="none" xmlns="http://www.w3.org/2000/svg">
<path fill-rule="evenodd" clip-rule="evenodd" d="M1.64592 4.9199C1.69236 4.87334 1.74754 4.8364 1.80828 4.81119C1.86903 4.78598 1.93415 4.77301 1.99992 4.77301C2.06568 4.77301 2.13081 4.78598 2.19155 4.81119C2.2523 4.8364 2.30747 4.87334 2.35392 4.9199L7.99992 10.5669L13.6459 4.9199C13.6924 4.87342 13.7476 4.83654 13.8083 4.81138C13.8691 4.78622 13.9342 4.77327 13.9999 4.77327C14.0657 4.77327 14.1308 4.78622 14.1915 4.81138C14.2522 4.83654 14.3074 4.87342 14.3539 4.9199C14.4004 4.96639 14.4373 5.02158 14.4624 5.08232C14.4876 5.14306 14.5005 5.20816 14.5005 5.2739C14.5005 5.33965 14.4876 5.40475 14.4624 5.46549C14.4373 5.52623 14.4004 5.58142 14.3539 5.6279L8.35392 11.6279C8.30747 11.6745 8.2523 11.7114 8.19155 11.7366C8.13081 11.7618 8.06568 11.7748 7.99992 11.7748C7.93415 11.7748 7.86903 11.7618 7.80828 11.7366C7.74754 11.7114 7.69236 11.6745 7.64592 11.6279L1.64592 5.6279C1.59935 5.58146 1.56241 5.52628 1.5372 5.46554C1.512 5.40479 1.49902 5.33967 1.49902 5.2739C1.49902 5.20814 1.512 5.14302 1.5372 5.08227C1.56241 5.02153 1.59935 4.96635 1.64592 4.9199Z" fill="white"/>
</svg>
