<svg width="20" height="21" viewBox="0 0 20 21" fill="none" xmlns="http://www.w3.org/2000/svg">
<path d="M10.155 13.0608C9.64082 13.0608 9.34082 13.55 9.34082 14.205C9.34082 14.8641 9.64999 15.33 10.16 15.33C10.6742 15.33 10.9692 14.84 10.9692 14.185C10.9692 13.58 10.6792 13.0608 10.155 13.0608Z" fill="#3E975B"/>
<path d="M11.6667 2.60083H5.00004C4.55801 2.60083 4.13409 2.77642 3.82153 3.08899C3.50897 3.40155 3.33337 3.82547 3.33337 4.2675V17.6008C3.33337 18.0429 3.50897 18.4668 3.82153 18.7793C4.13409 19.0919 4.55801 19.2675 5.00004 19.2675H15C15.4421 19.2675 15.866 19.0919 16.1786 18.7793C16.4911 18.4668 16.6667 18.0429 16.6667 17.6008V7.60083L11.6667 2.60083ZM7.62921 15.4792C7.27421 15.7742 6.73504 15.9133 6.07587 15.9133C5.68004 15.9133 5.40087 15.8883 5.21087 15.8633V12.5542C5.55168 12.5051 5.89573 12.482 6.24004 12.485C6.88004 12.485 7.29504 12.6 7.61921 12.845C7.96921 13.105 8.18921 13.52 8.18921 14.1133C8.18921 14.7592 7.95421 15.2042 7.62921 15.4792ZM10.1209 15.9342C9.12087 15.9342 8.53671 15.1792 8.53671 14.2192C8.53671 13.21 9.18087 12.4558 10.1759 12.4558C11.21 12.4558 11.775 13.23 11.775 14.16C11.7742 15.2642 11.1042 15.9342 10.1209 15.9342ZM14 15.2992C14.2292 15.2992 14.4842 15.2483 14.635 15.1892L14.75 15.7833C14.61 15.8533 14.295 15.9283 13.8859 15.9283C12.7217 15.9283 12.1217 15.2042 12.1217 14.2442C12.1217 13.095 12.9409 12.4558 13.9609 12.4558C14.3559 12.4558 14.655 12.5358 14.79 12.6058L14.635 13.2108C14.4322 13.127 14.2146 13.0845 13.995 13.0858C13.39 13.0858 12.92 13.4508 12.92 14.2008C12.92 14.875 13.32 15.2992 14 15.2992ZM11.6667 8.43416H10.8334V4.2675L15 8.43416H11.6667Z" fill="#3E975B"/>
<path d="M6.32 13.0698C6.15083 13.0698 6.04083 13.0848 5.97583 13.0998V15.304C6.04083 15.319 6.14583 15.319 6.24 15.319C6.93 15.324 7.37916 14.9448 7.37916 14.1398C7.38416 13.4398 6.975 13.0698 6.32 13.0698Z" fill="#3E975B"/>
</svg>
