<svg width="20" height="21" viewBox="0 0 20 21" fill="none" xmlns="http://www.w3.org/2000/svg">
<path d="M7.61223 17.8112V15.2631C7.61223 14.6126 8.14339 14.0853 8.79861 14.0853H11.1938C11.5084 14.0853 11.8102 14.2094 12.0327 14.4303C12.2551 14.6512 12.3801 14.9507 12.3801 15.2631V17.8112C12.3782 18.0816 12.485 18.3416 12.6769 18.5336C12.8688 18.7255 13.13 18.8334 13.4024 18.8334H15.0364C15.7996 18.8354 16.5322 18.5358 17.0726 18.0008C17.6129 17.4657 17.9166 16.7392 17.9166 15.9816V8.72246C17.9166 8.11047 17.6433 7.52995 17.1704 7.13731L11.6116 2.72997C10.6446 1.95722 9.25918 1.98217 8.32108 2.78923L2.8891 7.13731C2.39387 7.51838 2.09788 8.10061 2.08325 8.72246V15.9742C2.08325 17.5533 3.37274 18.8334 4.9634 18.8334H6.56016C7.12594 18.8334 7.58575 18.3803 7.58985 17.8186L7.61223 17.8112Z" fill="white"/>
</svg>
