<svg width="20" height="20" viewBox="0 0 20 20" fill="none" xmlns="http://www.w3.org/2000/svg">
<path d="M13.6165 1.66602C16.4415 1.66602 18.3332 3.64935 18.3332 6.59935V13.4085C18.3332 16.3502 16.4415 18.3327 13.6165 18.3327H6.3915C3.5665 18.3327 1.6665 16.3502 1.6665 13.4085V6.59935C1.6665 3.64935 3.5665 1.66602 6.3915 1.66602H13.6165ZM9.9915 8.73351C9.5915 8.73351 9.2665 9.06601 9.2665 9.46685V13.1502C9.2665 13.5502 9.5915 13.8752 9.9915 13.8752C10.3998 13.8752 10.7248 13.5502 10.7248 13.1502V9.46685C10.7248 9.06601 10.3998 8.73351 9.9915 8.73351ZM10.0082 6.09185C9.59984 6.09185 9.27484 6.41685 9.27484 6.82518C9.27484 7.22435 9.59984 7.55018 9.9915 7.55018C10.4082 7.55018 10.7332 7.22435 10.7332 6.82518C10.7332 6.41685 10.4082 6.09185 10.0082 6.09185Z" fill="white"/>
</svg>
