<svg width="21" height="21" viewBox="0 0 21 21" fill="none" xmlns="http://www.w3.org/2000/svg">
<path d="M10.9974 8.19763C10.4134 8.19763 9.86652 8.42419 9.45246 8.83826C9.04035 9.25232 8.81184 9.79919 8.81184 10.3832C8.81184 10.9672 9.04035 11.514 9.45246 11.9281C9.86652 12.3402 10.4134 12.5687 10.9974 12.5687C11.5814 12.5687 12.1282 12.3402 12.5423 11.9281C12.9544 11.514 13.1829 10.9672 13.1829 10.3832C13.1829 9.79919 12.9544 9.25232 12.5423 8.83826C12.3401 8.63446 12.0993 8.47288 11.8341 8.36291C11.5689 8.25293 11.2845 8.19675 10.9974 8.19763V8.19763ZM19.0501 12.7972L17.7728 11.7054C17.8333 11.3344 17.8646 10.9554 17.8646 10.5785C17.8646 10.2015 17.8333 9.82068 17.7728 9.45154L19.0501 8.35974C19.1466 8.27714 19.2157 8.16712 19.2481 8.04431C19.2806 7.9215 19.2749 7.79173 19.2318 7.67224L19.2142 7.62146C18.8626 6.63843 18.3359 5.72723 17.6595 4.93201L17.6243 4.89099C17.5422 4.79441 17.4327 4.72499 17.3103 4.69187C17.188 4.65874 17.0584 4.66348 16.9388 4.70544L15.3529 5.2699C14.7669 4.78943 14.1146 4.41052 13.4075 4.14685L13.1009 2.48865C13.0778 2.36373 13.0172 2.24881 12.9272 2.15915C12.8372 2.06949 12.722 2.00934 12.597 1.98669L12.5443 1.97693C11.5286 1.79333 10.4583 1.79333 9.4427 1.97693L9.38996 1.98669C9.26496 2.00934 9.1498 2.06949 9.05979 2.15915C8.96979 2.24881 8.90919 2.36373 8.88606 2.48865L8.57746 4.15466C7.87713 4.42044 7.22472 4.79842 6.64582 5.2738L5.04817 4.70544C4.92857 4.66314 4.79893 4.65824 4.67648 4.69138C4.55402 4.72452 4.44456 4.79414 4.36262 4.89099L4.32746 4.93201C3.65225 5.72808 3.12565 6.63905 2.77278 7.62146L2.7552 7.67224C2.66731 7.91638 2.73957 8.18982 2.93684 8.35974L4.22981 9.46326C4.16926 9.83044 4.13996 10.2054 4.13996 10.5765C4.13996 10.9515 4.16926 11.3265 4.22981 11.6898L2.94074 12.7933C2.84425 12.8759 2.77519 12.986 2.74274 13.1088C2.7103 13.2316 2.716 13.3613 2.7591 13.4808L2.77668 13.5316C3.1302 14.514 3.65168 15.4222 4.33137 16.2211L4.36653 16.2621C4.44866 16.3587 4.55813 16.4281 4.68051 16.4612C4.80289 16.4943 4.93244 16.4896 5.05207 16.4476L6.64973 15.8793C7.23176 16.3578 7.8802 16.7367 8.58137 16.9984L8.88996 18.6644C8.9131 18.7893 8.97369 18.9043 9.0637 18.9939C9.15371 19.0836 9.26886 19.1437 9.39387 19.1664L9.4466 19.1761C10.4722 19.3607 11.5226 19.3607 12.5482 19.1761L12.6009 19.1664C12.7259 19.1437 12.8411 19.0836 12.9311 18.9939C13.0211 18.9043 13.0817 18.7893 13.1048 18.6644L13.4114 17.0062C14.1185 16.7406 14.7708 16.3636 15.3568 15.8832L16.9427 16.4476C17.0623 16.4899 17.1919 16.4948 17.3144 16.4617C17.4368 16.4286 17.5463 16.3589 17.6282 16.2621L17.6634 16.2211C18.3431 15.4183 18.8646 14.514 19.2181 13.5316L19.2357 13.4808C19.3196 13.2386 19.2474 12.9672 19.0501 12.7972ZM10.9974 13.8168C9.1009 13.8168 7.56379 12.2797 7.56379 10.3832C7.56379 8.48669 9.1009 6.94959 10.9974 6.94959C12.8939 6.94959 14.431 8.48669 14.431 10.3832C14.431 12.2797 12.8939 13.8168 10.9974 13.8168Z" fill="white"/>
</svg>
