<svg width="24" height="25" viewBox="0 0 24 25" fill="none" xmlns="http://www.w3.org/2000/svg">
<path d="M23.2494 1.02457C22.362 0.136993 20.9229 0.136993 20.0353 1.02457L12 9.05987L3.96473 1.02457C3.07731 0.136993 1.63822 0.136993 0.750643 1.02457C-0.136933 1.91214 -0.136933 3.35108 0.750643 4.23866L8.78594 12.274L0.750643 20.3093C-0.136933 21.1968 -0.136933 22.6358 0.750643 23.5234C1.19443 23.9671 1.7761 24.1891 2.35761 24.1891C2.93928 24.1891 3.52095 23.9673 3.96458 23.5234L11.9999 15.4881L20.0352 23.5234C20.479 23.9671 21.0606 24.1891 21.6422 24.1891C22.2238 24.1891 22.8055 23.9673 23.2493 23.5234C24.1369 22.6358 24.1369 21.1968 23.2493 20.3093L15.2141 12.274L23.2494 4.23866C24.137 3.35108 24.137 1.91214 23.2494 1.02457Z" fill="#3E975B"/>
</svg>
