<svg width="36" height="24" viewBox="0 0 36 24" fill="none" xmlns="http://www.w3.org/2000/svg">
<path fill-rule="evenodd" clip-rule="evenodd" d="M0.506836 1.7959C0.506836 0.967471 1.17841 0.295898 2.00684 0.295898H33.9927C34.8211 0.295898 35.4927 0.967471 35.4927 1.7959C35.4927 2.62433 34.8211 3.2959 33.9927 3.2959H2.00684C1.17841 3.2959 0.506836 2.62433 0.506836 1.7959ZM15.1289 12C15.1289 11.1716 15.8005 10.5 16.6289 10.5H33.9927C34.8211 10.5 35.4927 11.1716 35.4927 12C35.4927 12.8284 34.8211 13.5 33.9927 13.5H16.6289C15.8005 13.5 15.1289 12.8284 15.1289 12ZM2.00696 20.7044C1.17853 20.7044 0.506958 21.3759 0.506958 22.2044C0.506958 23.0328 1.17853 23.7044 2.00696 23.7044H33.9928C34.8212 23.7044 35.4928 23.0328 35.4928 22.2044C35.4928 21.3759 34.8212 20.7044 33.9928 20.7044H2.00696Z" fill="black"/>
</svg>
