<svg width="20" height="21" viewBox="0 0 20 21" fill="none" xmlns="http://www.w3.org/2000/svg">
<path d="M0 11.3917C0 11.6698 0.173537 11.9184 0.43461 12.0142L1.62406 12.4509C1.71354 12.2372 1.84476 12.0369 2.01848 11.8632C2.36556 11.5161 2.82703 11.3249 3.31789 11.3249C3.80874 11.3249 4.27021 11.5161 4.6173 11.8632L8.25762 15.5035C8.76983 16.0157 8.91564 16.7574 8.69551 17.4006C9.2248 17.7882 9.93478 17.855 10.5343 17.5536L15.5407 15.0365C16.3587 14.6253 16.6969 13.6881 16.42 12.8821C16.4177 12.8821 16.4153 12.8822 16.4131 12.8822C15.7467 12.8822 15.1188 12.5893 14.6905 12.0786L11.244 7.96956L10.7573 8.45624C10.4161 8.79737 9.96255 8.98531 9.48004 8.98531C8.99756 8.98531 8.54394 8.79742 8.20278 8.45624L8.0368 8.29024C7.69562 7.94906 7.50775 7.49546 7.50775 7.01295C7.50775 6.53047 7.69564 6.07687 8.0368 5.73569L9.41869 4.3538L9.13023 4.00992C8.60288 3.37506 7.70653 3.18935 6.97036 3.56249L3.21257 5.46712L0.910737 4.54106C0.474947 4.36573 4.21053e-05 4.68655 4.21053e-05 5.1563V11.3917H0Z" fill="white"/>
<path d="M19.9999 11.1216V6.01779C19.9999 5.65154 19.703 5.35463 19.3367 5.35463H16.3999L13.379 3.17415C13.0681 2.94968 12.7054 2.8396 12.3446 2.8396C11.8889 2.8396 11.436 3.01516 11.0935 3.35758L9.72818 4.7229L8.37603 6.07505C7.85805 6.59301 7.85805 7.4328 8.37603 7.95076L8.54201 8.11676C8.80098 8.37575 9.14043 8.50522 9.47987 8.50522C9.81932 8.50522 10.1587 8.37575 10.4177 8.11676L11.2749 7.2596L15.058 11.7701C15.3401 12.1064 15.7312 12.3195 16.151 12.3824C16.2374 12.3954 16.3249 12.4021 16.4129 12.4021C16.5393 12.4021 16.6668 12.3885 16.7932 12.3607L19.4793 11.7692C19.7833 11.7023 19.9999 11.4329 19.9999 11.1216Z" fill="white"/>
<path d="M5.9981 17.7629C6.26319 18.028 6.61065 18.1605 6.9581 18.1605C7.30555 18.1605 7.65303 18.028 7.91812 17.7629C8.12498 17.556 8.25073 17.299 8.29618 17.0309C8.36722 16.612 8.24143 16.1662 7.91812 15.8428L4.27781 12.2026C4.01271 11.9375 3.66526 11.8049 3.31781 11.8049C2.97035 11.8049 2.6229 11.9375 2.35781 12.2026C2.23486 12.3256 2.14079 12.4663 2.07488 12.6165C1.85652 13.1139 1.95058 13.7153 2.35781 14.1226L5.9981 17.7629Z" fill="white"/>
</svg>
