<svg width="20" height="21" viewBox="0 0 20 21" fill="none" xmlns="http://www.w3.org/2000/svg">
<path d="M19.1666 15.2739H16.6666V12.7739H14.9999V15.2739H12.4999V16.9406H14.9999V19.4406H16.6666V16.9406H19.1666V15.2739ZM4.99992 1.94055C4.55789 1.94055 4.13397 2.11615 3.82141 2.42871C3.50885 2.74127 3.33325 3.16519 3.33325 3.60722V16.9406C3.33325 17.8656 4.07492 18.6072 4.99992 18.6072H11.5083C11.2083 18.0906 10.9999 17.5239 10.8999 16.9406H4.99992V3.60722H10.8333V7.77388H14.9999V11.1739C15.2749 11.1322 15.5583 11.1072 15.8333 11.1072C16.1166 11.1072 16.3916 11.1322 16.6666 11.1739V6.94055L11.6666 1.94055H4.99992ZM6.66659 10.2739V11.9406H13.3333V10.2739H6.66659ZM6.66659 13.6072V15.2739H10.8333V13.6072H6.66659Z" fill="#8D96B2"/>
</svg>
