<svg width="24" height="25" viewBox="0 0 24 25" fill="none" xmlns="http://www.w3.org/2000/svg">
<path d="M12 15.978C13.6569 15.978 15 14.6349 15 12.978C15 11.3212 13.6569 9.97803 12 9.97803C10.3431 9.97803 9 11.3212 9 12.978C9 14.6349 10.3431 15.978 12 15.978Z" fill="black" fill-opacity="0.3"/>
<path d="M23.2047 12.723C22.3226 10.4413 20.7912 8.46799 18.7998 7.04709C16.8084 5.62619 14.4443 4.81996 11.9997 4.72803C9.55507 4.81996 7.19097 5.62619 5.19958 7.04709C3.20819 8.46799 1.6768 10.4413 0.794681 12.723C0.735106 12.8878 0.735106 13.0682 0.794681 13.233C1.6768 15.5148 3.20819 17.4881 5.19958 18.909C7.19097 20.3299 9.55507 21.1361 11.9997 21.228C14.4443 21.1361 16.8084 20.3299 18.7998 18.909C20.7912 17.4881 22.3226 15.5148 23.2047 13.233C23.2643 13.0682 23.2643 12.8878 23.2047 12.723ZM11.9997 17.853C11.0355 17.853 10.093 17.5671 9.29128 17.0314C8.48959 16.4958 7.86475 15.7344 7.49577 14.8436C7.12679 13.9528 7.03025 12.9726 7.21835 12.027C7.40646 11.0813 7.87075 10.2127 8.55254 9.53088C9.23432 8.8491 10.103 8.3848 11.0486 8.1967C11.9943 8.0086 12.9745 8.10514 13.8653 8.47411C14.7561 8.84309 15.5174 9.46793 16.0531 10.2696C16.5888 11.0713 16.8747 12.0138 16.8747 12.978C16.8727 14.2703 16.3584 15.5092 15.4446 16.423C14.5308 17.3368 13.292 17.851 11.9997 17.853Z" fill="black" fill-opacity="0.3"/>
</svg>
