<svg width="20" height="20" viewBox="0 0 20 20" fill="none" xmlns="http://www.w3.org/2000/svg">
<path d="M15.4677 11.683C17.051 11.683 18.3334 12.9438 18.3334 14.4993C18.3334 16.054 17.051 17.3148 15.4677 17.3148C13.8853 17.3148 12.602 16.054 12.602 14.4993C12.602 12.9438 13.8853 11.683 15.4677 11.683ZM8.40282 13.2983C9.09634 13.2983 9.6593 13.8514 9.6593 14.5327C9.6593 15.2132 9.09634 15.7672 8.40282 15.7672H2.92322C2.22971 15.7672 1.66675 15.2132 1.66675 14.5327C1.66675 13.8514 2.22971 13.2983 2.92322 13.2983H8.40282ZM4.53247 2.5C6.1158 2.5 7.3982 3.76082 7.3982 5.31547C7.3982 6.87102 6.1158 8.13184 4.53247 8.13184C2.95007 8.13184 1.66675 6.87102 1.66675 5.31547C1.66675 3.76082 2.95007 2.5 4.53247 2.5ZM17.0779 4.08194C17.7705 4.08194 18.3334 4.63502 18.3334 5.31547C18.3334 5.99682 17.7705 6.54991 17.0779 6.54991H11.5983C10.9048 6.54991 10.3418 5.99682 10.3418 5.31547C10.3418 4.63502 10.9048 4.08194 11.5983 4.08194H17.0779Z" fill="white"/>
</svg>
