<svg width="20" height="20" viewBox="0 0 20 20" fill="none" xmlns="http://www.w3.org/2000/svg">
<g clip-path="url(#clip0_154_1849)">
<path d="M8.46306 2.76547C9.34829 2.76547 10.0659 3.48305 10.0659 4.36828C10.0659 5.25352 9.34829 5.97109 8.46306 5.97109C7.57783 5.97109 6.86017 5.25352 6.86017 4.36828C6.86017 3.48305 7.57783 2.76547 8.46306 2.76547ZM2.58353 12.4784L2.56876 12.4637C2.50228 12.4194 2.44322 12.3824 2.3915 12.3234L2.56876 14.3546L0.338059 17.5159C0.0204806 17.9739 0.131262 18.5944 0.574387 18.912C1.03236 19.2295 1.65282 19.1187 1.9704 18.6756L4.37837 15.2041C4.50392 15.0268 4.58517 14.7904 4.55564 14.5541L4.47439 13.5717L2.58353 12.4784ZM9.20907 19.0892H18.767L16.9795 13.5126C16.9795 13.5126 15.9675 13.7638 13.9659 15.8909C13.9216 15.9352 13.8699 15.987 13.8256 16.0312L8.99493 13.2392C9.07618 13.0841 9.09095 12.9068 9.06142 12.7148L7.34767 6.36258C7.20736 5.74211 6.65337 5.26937 6.00337 5.26937H2.80509C2.56876 5.26937 2.33236 5.39492 2.19939 5.6018L0.603996 8.37164C0.397199 8.70406 0.522746 9.13242 0.855168 9.32445L2.64267 10.3512L2.40634 10.75C2.11829 11.2227 2.28079 11.8284 2.76829 12.0943L6.77892 14.4062V18.0698C6.77892 18.6238 7.22212 19.067 7.77611 19.067C8.33009 19.067 8.77329 18.6238 8.77329 18.0698V13.8892L13.2124 16.4597C12.2965 16.9841 11.2477 17.0802 10.5017 17.5233C9.58572 18.0699 9.20907 19.0892 9.20907 19.0892ZM2.98236 9.76766L1.8079 9.08813L3.20392 6.68016H4.76986L2.98236 9.76766ZM5.56025 11.2597L6.66821 9.32445L7.49548 12.3676L5.56025 11.2597ZM18.2975 6.07227C19.5393 4.83844 19.8438 0.65625 19.8438 0.65625C19.8438 0.65625 18.9865 1.20109 17.6405 1.3132C16.3746 1.42539 15.1969 1.60164 14.5078 2.29062C13.4423 3.35617 13.1778 4.86242 13.7867 5.93602C14.628 4.50992 17.392 3.25203 17.392 3.25203C15.4292 4.64609 14.1392 5.97609 12.7932 7.89891L13.5383 7.98703C13.5383 7.98703 14.027 7.09773 14.4596 6.67312C15.5334 7.42625 17.1678 7.20195 18.2975 6.07227Z" fill="white"/>
</g>
<defs>
<clipPath id="clip0_154_1849">
<rect width="20" height="18.75" fill="white" transform="translate(0 0.5)"/>
</clipPath>
</defs>
</svg>
