<svg width="20" height="21" viewBox="0 0 20 21" fill="none" xmlns="http://www.w3.org/2000/svg">
<g clip-path="url(#clip0_154_1859)">
<path d="M10 20.5C10 20.5 3 11.37 3 7.5C3 6.58075 3.18106 5.6705 3.53284 4.82122C3.88463 3.97194 4.40024 3.20026 5.05025 2.55025C5.70026 1.90024 6.47194 1.38463 7.32122 1.03284C8.1705 0.68106 9.08075 0.5 10 0.5C10.9193 0.5 11.8295 0.68106 12.6788 1.03284C13.5281 1.38463 14.2997 1.90024 14.9497 2.55025C15.5998 3.20026 16.1154 3.97194 16.4672 4.82122C16.8189 5.6705 17 6.58075 17 7.5C17 11.37 10 20.5 10 20.5ZM10 9.5C10.5304 9.5 11.0391 9.28929 11.4142 8.91421C11.7893 8.53914 12 8.03043 12 7.5C12 6.96957 11.7893 6.46086 11.4142 6.08579C11.0391 5.71071 10.5304 5.5 10 5.5C9.46957 5.5 8.96086 5.71071 8.58579 6.08579C8.21071 6.46086 8 6.96957 8 7.5C8 8.03043 8.21071 8.53914 8.58579 8.91421C8.96086 9.28929 9.46957 9.5 10 9.5Z" fill="white"/>
</g>
<defs>
<clipPath id="clip0_154_1859">
<rect width="20" height="20" fill="white" transform="translate(0 0.5)"/>
</clipPath>
</defs>
</svg>
