<svg width="21" height="21" viewBox="0 0 21 21" fill="none" xmlns="http://www.w3.org/2000/svg">
<path d="M6.75 10.6965C6.75 10.5308 6.81585 10.3718 6.93306 10.2546C7.05027 10.1374 7.20924 10.0715 7.375 10.0715H13V6.00903C13 4.75903 11.6801 3.82153 10.5 3.82153H4.5625C3.98253 3.82215 3.42649 4.05282 3.01639 4.46292C2.60629 4.87302 2.37562 5.42906 2.375 6.00903V15.384C2.37562 15.964 2.60629 16.52 3.01639 16.9301C3.42649 17.3402 3.98253 17.5709 4.5625 17.5715H10.8125C11.3925 17.5709 11.9485 17.3402 12.3586 16.9301C12.7687 16.52 12.9994 15.964 13 15.384V11.3215H7.375C7.20924 11.3215 7.05027 11.2557 6.93306 11.1385C6.81585 11.0213 6.75 10.8623 6.75 10.6965ZM18.4418 10.2547L15.3168 7.12974C15.1986 7.01747 15.0413 6.95581 14.8783 6.9579C14.7153 6.95999 14.5596 7.02566 14.4444 7.14091C14.3291 7.25616 14.2635 7.41187 14.2614 7.57485C14.2593 7.73782 14.3209 7.89517 14.4332 8.01333L16.491 10.0715H13V11.3215H16.491L14.4332 13.3797C14.3727 13.4372 14.3244 13.5062 14.291 13.5826C14.2576 13.6591 14.2398 13.7414 14.2387 13.8248C14.2377 13.9083 14.2533 13.991 14.2847 14.0683C14.3162 14.1456 14.3628 14.2158 14.4217 14.2748C14.4807 14.3338 14.5509 14.3804 14.6282 14.4118C14.7055 14.4432 14.7883 14.4589 14.8717 14.4578C14.9551 14.4567 15.0375 14.439 15.1139 14.4056C15.1904 14.3722 15.2593 14.3238 15.3168 14.2633L18.4418 11.1383C18.5589 11.0211 18.6247 10.8622 18.6247 10.6965C18.6247 10.5308 18.5589 10.3719 18.4418 10.2547Z" fill="#3E975B"/>
</svg>
