<svg width="57" height="14" viewBox="0 0 57 14" fill="none" xmlns="http://www.w3.org/2000/svg">
<path fill-rule="evenodd" clip-rule="evenodd" d="M3.43408 2.96924H11.6751L3.43408 7.94174V2.96924Z" fill="#FF7AFF"/>
<path fill-rule="evenodd" clip-rule="evenodd" d="M11.6751 11.1947H3.43408L11.6751 6.22217V11.1947Z" fill="#FF7AFF"/>
<path fill-rule="evenodd" clip-rule="evenodd" d="M3.43408 11.1948H11.6751L9.21209 13.6733H3.43408V11.1948Z" fill="url(#paint0_linear_149_1791)"/>
<path fill-rule="evenodd" clip-rule="evenodd" d="M11.6753 2.96924H14.1383V8.71627L11.6753 11.1948V2.96924Z" fill="url(#paint1_linear_149_1791)"/>
<path fill-rule="evenodd" clip-rule="evenodd" d="M11.6751 2.96923H3.43408L5.8971 0.490723H11.6751V2.96923Z" fill="url(#paint2_linear_149_1791)"/>
<path fill-rule="evenodd" clip-rule="evenodd" d="M3.4342 11.1948H0.971191V5.44774L3.4342 2.96924V11.1948Z" fill="url(#paint3_linear_149_1791)"/>
<path d="M18.1296 10.082H22.7771V8.80244H20.2892L20.2797 8.77865L22.7248 6.1053V5.11587H18.2248V6.39547H20.5651L20.5747 6.41925L18.1296 9.09261V10.082Z" fill="black"/>
<path d="M25.1413 10.22C25.8025 10.22 26.4542 9.91554 26.7682 9.45413H26.7872C26.968 9.91554 27.477 10.22 28.0621 10.22C28.2714 10.22 28.5187 10.201 28.6804 10.1677L28.5901 8.96893C28.571 8.97368 28.5425 8.97368 28.514 8.97368C28.376 8.97368 28.2809 8.87379 28.2809 8.72633V6.79504C28.2809 5.70572 27.3247 4.97792 25.8929 4.97792C24.5277 4.97792 23.6429 5.72475 23.6857 6.84261L25.1794 6.75699C25.089 6.40974 25.3506 6.18141 25.8358 6.18141C26.3496 6.18141 26.6921 6.47158 26.6921 6.90921V7.17083C26.4067 7.12327 26.0214 7.09473 25.7359 7.09473C24.2851 7.09473 23.3147 7.73214 23.3147 8.68352C23.3147 9.60635 24.0473 10.22 25.1413 10.22ZM25.5837 9.07358C25.2079 9.07358 24.9558 8.87855 24.9558 8.58362C24.9558 8.2554 25.3078 8.03658 25.8358 8.03658C26.0784 8.03658 26.4209 8.06512 26.6873 8.11269C26.616 8.68827 26.1736 9.07358 25.5837 9.07358ZM29.3987 10.082H30.9875V7.11375C30.9875 6.55244 31.3205 6.18141 31.8152 6.18141C32.2433 6.18141 32.5287 6.50488 32.5287 6.99007V10.082H34.1175V7.11375C34.1175 6.55244 34.4505 6.18141 34.9452 6.18141C35.3733 6.18141 35.6588 6.50488 35.6588 6.99007V10.082H37.2475V6.7665C37.2475 5.69145 36.534 4.97792 35.459 4.97792C34.8215 4.97792 34.1936 5.29188 33.8892 5.75805H33.8702C33.5943 5.29188 32.9806 4.97792 32.329 4.97792C31.7058 4.97792 31.0922 5.26809 30.7925 5.70572L30.7735 5.70097L30.4738 5.11587H29.3987V10.082ZM39.9922 10.22C40.6535 10.22 41.3051 9.91554 41.6191 9.45413H41.6381C41.8189 9.91554 42.3279 10.22 42.913 10.22C43.1223 10.22 43.3696 10.201 43.5313 10.1677L43.441 8.96893C43.4219 8.97368 43.3934 8.97368 43.3649 8.97368C43.2269 8.97368 43.1318 8.87379 43.1318 8.72633V6.79504C43.1318 5.70572 42.1756 4.97792 40.7438 4.97792C39.3786 4.97792 38.4938 5.72475 38.5366 6.84261L40.0303 6.75699C39.9399 6.40974 40.2015 6.18141 40.6867 6.18141C41.2005 6.18141 41.543 6.47158 41.543 6.90921V7.17083C41.2576 7.12327 40.8723 7.09473 40.5869 7.09473C39.136 7.09473 38.1656 7.73214 38.1656 8.68352C38.1656 9.60635 38.8982 10.22 39.9922 10.22ZM40.4346 9.07358C40.0588 9.07358 39.8067 8.87855 39.8067 8.58362C39.8067 8.2554 40.1587 8.03658 40.6867 8.03658C40.9293 8.03658 41.2718 8.06512 41.5382 8.11269C41.4669 8.68827 41.0245 9.07358 40.4346 9.07358ZM45.7195 10.22C46.3807 10.22 47.0324 9.91554 47.3463 9.45413H47.3654C47.5461 9.91554 48.0551 10.22 48.6402 10.22C48.8495 10.22 49.0969 10.201 49.2586 10.1677L49.1682 8.96893C49.1492 8.97368 49.1207 8.97368 49.0921 8.97368C48.9542 8.97368 48.859 8.87379 48.859 8.72633V6.79504C48.859 5.70572 47.9029 4.97792 46.4711 4.97792C45.1059 4.97792 44.2211 5.72475 44.2639 6.84261L45.7576 6.75699C45.6672 6.40974 45.9288 6.18141 46.414 6.18141C46.9277 6.18141 47.2702 6.47158 47.2702 6.90921V7.17083C46.9848 7.12327 46.5995 7.09473 46.3141 7.09473C44.8633 7.09473 43.8929 7.73214 43.8929 8.68352C43.8929 9.60635 44.6254 10.22 45.7195 10.22ZM46.1619 9.07358C45.7861 9.07358 45.534 8.87855 45.534 8.58362C45.534 8.2554 45.886 8.03658 46.414 8.03658C46.6566 8.03658 46.9991 8.06512 47.2655 8.11269C47.1941 8.68827 46.7517 9.07358 46.1619 9.07358ZM49.9769 10.082H51.5657V7.20413C51.5657 6.5905 51.9224 6.18141 52.46 6.18141C52.9357 6.18141 53.2496 6.53342 53.2496 7.06618V10.082H54.8384V6.84737C54.8384 5.72475 54.0868 4.97792 52.9642 4.97792C52.3078 4.97792 51.6703 5.29663 51.3659 5.77708L51.3469 5.77232L51.1471 5.11587H49.9769V10.082Z" fill="black"/>
<defs>
<linearGradient id="paint0_linear_149_1791" x1="3.43794" y1="12.4307" x2="11.6712" y2="12.4307" gradientUnits="userSpaceOnUse">
<stop stop-color="#0178FA"/>
<stop offset="1" stop-color="#484B98"/>
</linearGradient>
<linearGradient id="paint1_linear_149_1791" x1="11.6133" y1="7.11765" x2="14.898" y2="6.92973" gradientUnits="userSpaceOnUse">
<stop stop-color="#A16DFF"/>
<stop offset="1" stop-color="#6C509A"/>
</linearGradient>
<linearGradient id="paint2_linear_149_1791" x1="11.6712" y1="1.72746" x2="3.43794" y2="1.72746" gradientUnits="userSpaceOnUse">
<stop stop-color="#0178FA"/>
<stop offset="1" stop-color="#484B98"/>
</linearGradient>
<linearGradient id="paint3_linear_149_1791" x1="4.17653" y1="6.61213" x2="0.891895" y2="6.79996" gradientUnits="userSpaceOnUse">
<stop stop-color="#A16DFF"/>
<stop offset="1" stop-color="#6C509A"/>
</linearGradient>
</defs>
</svg>
