<svg width="36" height="36" viewBox="0 0 36 36" fill="none" xmlns="http://www.w3.org/2000/svg">
<path d="M22.3361 23.478L24.5758 21.2382C24.8775 20.9403 25.2591 20.7364 25.6745 20.6512C26.0898 20.566 26.521 20.6032 26.9156 20.7583L29.6453 21.8482C30.044 22.01 30.3859 22.2863 30.6279 22.6422C30.8699 22.998 31.0012 23.4176 31.0051 23.8479V28.8474C31.0028 29.1401 30.9412 29.4294 30.8242 29.6977C30.7071 29.9661 30.537 30.2079 30.324 30.4088C30.111 30.6096 29.8596 30.7653 29.5848 30.8664C29.3101 30.9675 29.0177 31.012 28.7254 30.9972C9.59744 29.8073 5.73787 13.609 5.00794 7.40972C4.97406 7.10529 5.00502 6.79713 5.09878 6.50553C5.19255 6.21392 5.34699 5.94547 5.55195 5.71784C5.75692 5.49021 6.00775 5.30855 6.28796 5.18482C6.56817 5.0611 6.8714 4.9981 7.17771 4.99998H12.0072C12.4381 5.00126 12.8589 5.13143 13.2152 5.37377C13.5716 5.6161 13.8473 5.95952 14.007 6.35983L15.0968 9.08954C15.2571 9.48256 15.298 9.91409 15.2144 10.3302C15.1308 10.7463 14.9265 11.1286 14.6269 11.4293L12.3871 13.669C12.3871 13.669 13.677 22.3981 22.3361 23.478Z" fill="#3E975B"/>
</svg>
