<svg width="32" height="32" viewBox="0 0 32 32" fill="none" xmlns="http://www.w3.org/2000/svg">
<rect x="32" y="32" width="32" height="32" rx="16" transform="rotate(-180 32 32)" fill="white"/>
<path d="M15.2929 24.7071C15.6834 25.0976 16.3166 25.0976 16.7071 24.7071L23.0711 18.3431C23.4616 17.9526 23.4616 17.3195 23.0711 16.9289C22.6805 16.5384 22.0474 16.5384 21.6569 16.9289L16 22.5858L10.3431 16.9289C9.95262 16.5384 9.31946 16.5384 8.92893 16.9289C8.53841 17.3195 8.53841 17.9526 8.92893 18.3431L15.2929 24.7071ZM15 8L15 24L17 24L17 8L15 8Z" fill="#18988B"/>
</svg>
